<svg width="28" height="30" viewBox="0 0 28 30" fill="none" xmlns="http://www.w3.org/2000/svg">
<rect width="28" height="30" rx="5" fill="white"/>
<path d="M16.4263 26H11.5663C11.1863 26 10.9063 25.92 10.7263 25.76C10.5663 25.58 10.4863 25.3 10.4863 24.92V10.19H6.07625C5.69625 10.19 5.41625 10.11 5.23625 9.95C5.07625 9.77 4.99625 9.49 4.99625 9.11V5.48C4.99625 5.1 5.07625 4.83 5.23625 4.67C5.41625 4.49 5.69625 4.4 6.07625 4.4H21.9163C22.2963 4.4 22.5663 4.49 22.7263 4.67C22.9063 4.83 22.9963 5.1 22.9963 5.48V9.11C22.9963 9.49 22.9063 9.77 22.7263 9.95C22.5663 10.11 22.2963 10.19 21.9163 10.19H17.5063V24.92C17.5063 25.3 17.4163 25.58 17.2363 25.76C17.0763 25.92 16.8063 26 16.4263 26Z" fill="#170C3A"/>
</svg>
